<?xml version="1.0" standalone="no"?>
<!DOCTYPE svg PUBLIC "-//W3C//DTD SVG 20010904//EN"
 "http://www.w3.org/TR/2001/REC-SVG-20010904/DTD/svg10.dtd">
<svg version="1.0" xmlns="http://www.w3.org/2000/svg"
 width="512.000000pt" height="512.000000pt" viewBox="0 0 512.000000 512.000000"
 preserveAspectRatio="xMidYMid meet">
<metadata>
Created by potrace 1.14, written by Peter Selinger 2001-2017
</metadata>
<g transform="translate(0.000000,512.000000) scale(0.100000,-0.100000)"
fill="#000000" stroke="none">
<path d="M2880 4361 c-42 -17 -71 -46 -80 -82 -6 -22 -9 -43 -6 -47 3 -5 7
-19 9 -33 12 -61 71 -277 83 -301 50 -98 200 -73 220 36 2 14 -5 60 -17 103
-11 43 -22 85 -24 93 -27 128 -57 200 -93 219 -24 13 -74 19 -92 12z"/>
<path d="M3734 4316 c-33 -29 -39 -43 -80 -194 -24 -90 -44 -178 -44 -196 0
-67 71 -120 139 -105 62 14 82 48 130 222 24 87 44 168 45 180 4 60 -49 117
-114 122 -32 2 -46 -3 -76 -29z"/>
<path d="M2095 3929 c-63 -17 -99 -91 -75 -153 10 -27 229 -260 261 -277 67
-36 152 -2 174 69 17 56 -1 86 -138 225 -138 141 -158 153 -222 136z"/>
<path d="M4511 3864 c-14 -10 -78 -69 -142 -133 -137 -133 -153 -166 -113
-242 16 -31 73 -61 106 -55 12 3 29 5 36 5 7 1 71 58 143 128 162 159 180 202
114 277 -32 37 -106 47 -144 20z"/>
<path d="M3205 3624 c-168 -20 -337 -84 -480 -182 -76 -52 -194 -161 -246
-228 l-24 -32 -105 42 c-249 100 -498 118 -770 55 -47 -10 -94 -23 -105 -28
-11 -5 -56 -24 -100 -42 -117 -49 -245 -138 -350 -242 -136 -136 -216 -264
-279 -448 l-35 -103 -98 -31 c-298 -96 -488 -270 -573 -523 -29 -89 -35 -130
-34 -262 0 -128 4 -154 35 -255 82 -269 284 -475 544 -557 105 -33 165 -34
1370 -33 1338 1 1226 -4 1419 72 153 60 254 124 349 217 158 154 238 345 254
600 l5 90 82 81 c140 138 237 308 285 497 137 533 -166 1087 -690 1262 -138
46 -315 66 -454 50z"/>
<path d="M4950 3091 c-14 -5 -81 -23 -150 -41 -149 -38 -168 -46 -192 -85 -27
-44 -23 -94 10 -133 46 -55 68 -55 258 -6 93 24 179 48 191 55 32 17 56 74 49
117 -11 72 -94 118 -166 93z"/>
<path d="M4650 2276 c-41 -13 -80 -66 -80 -109 0 -39 34 -92 68 -106 58 -23
319 -91 350 -91 40 0 78 24 98 61 37 73 -2 150 -91 174 -27 8 -102 28 -165 45
-148 41 -139 40 -180 26z"/>
<path d="M4267 1645 c-46 -16 -43 -13 -65 -59 -33 -67 -22 -88 117 -229 69
-71 137 -135 151 -142 47 -24 126 -1 150 44 16 31 19 84 5 111 -17 31 -236
254 -267 271 -33 19 -48 19 -91 4z"/>
</g>
</svg>
