<?xml version="1.0" encoding="utf-8"?>
<!-- Svg Vector Icons : http://www.onlinewebfonts.com/icon -->
<!DOCTYPE svg PUBLIC "-//W3C//DTD SVG 1.1//EN" "http://www.w3.org/Graphics/SVG/1.1/DTD/svg11.dtd">
<svg version="1.1" xmlns="http://www.w3.org/2000/svg" xmlns:xlink="http://www.w3.org/1999/xlink" x="0px" y="0px" viewBox="0 0 256 256" enable-background="new 0 0 256 256" xml:space="preserve">
<metadata> Svg Vector Icons : http://www.onlinewebfonts.com/icon </metadata>
<g><g><path fill="#ffffff" d="M205,163.1C205,163,205.1,163,205,163.1c0-1.2-0.2-2.3-0.5-3.4c-0.1-0.7-0.2-1.5-0.4-2.2c0,0-0.1,0.1-0.1,0.2c-1.6-6-4.4-11.9-4.4-11.9L135.5,17.2c-9.6-16.2-18.1,0-18.1,0L54.5,148c-2.6,7-3.3,12.5-3.3,12.5c-0.5,3.4-0.7,6.8-0.7,10.3c0,41.6,34.7,75.3,77.4,75.3c42.8,0,77.4-33.7,77.4-75.3C205.4,168.1,205.3,165.6,205,163.1L205,163.1z M128,164.8c-23.2-20.3-45.3-18.8-60.8-12.9l60.4-122.8L186,149.3c4.8,11,5.5,18.1,5.5,21.2C176.5,181.6,153.5,187.1,128,164.8L128,164.8z"/></g></g>
</svg>